<svg aria-hidden="true" style="position:absolute;width:0;height:0" xmlns="http://www.w3.org/2000/svg" overflow="hidden"><defs><symbol id="anten" viewBox="0 0 32 32"><path fill="var(--color1, #212121)" d="M30.773 22.098l-8.443-8.505.937-4.615c.242.094.499.144.758.146h.006a2.159 2.159 0 10-2.008-1.435l-4.96.605L8.972.161a.534.534 0 00-.377-.16.532.532 0 00-.373.155L6.709 1.66a.534.534 0 000 .754l.814.826a14.943 14.943 0 002.519 17.663.513.513 0 00.146.098c-.034.18-.051.364-.052.547v6.187h-6.4a2.67 2.67 0 00-2.667 2.667v1.067c0 .295.239.533.533.533h24.533a.533.533 0 00.533-.533v-1.067a2.67 2.67 0 00-2.667-2.667h-6.4v-2.742a15.09 15.09 0 003.049.32 14.854 14.854 0 007.04-1.783l.818.823a.534.534 0 00.377.16.532.532 0 00.373-.155l1.513-1.504a.534.534 0 000-.754zM23.28 6.233a1.066 1.066 0 11.752 1.822h-.003a1.067 1.067 0 01-.747-1.823h-.002zm-1.256 3.505l-.598 2.946-1.175-1.182 1.774-1.763zm-.605-.902l-1.92 1.909-1.485-1.493 3.405-.415zM24.004 28.8a1.6 1.6 0 011.6 1.6v.533H2.137V30.4a1.6 1.6 0 011.6-1.6h20.267zm-7.467-2.133v1.067h-5.333v-1.067h5.333zM11.204 25.6v-4.053c0-1.294 1.196-2.347 2.667-2.347s2.667 1.053 2.667 2.347V25.6h-5.333zm6.4-1.696v-2.357c0-1.882-1.675-3.413-3.733-3.413a3.8 3.8 0 00-3.281 1.786A13.87 13.87 0 018.311 4.033l18.602 18.708a13.818 13.818 0 01-9.309 1.163zm11.289-.684L7.836 2.039l.755-.752 7.935 7.98c.004 0 .006.007.01.01l13.115 13.191-.757.752z"/><path fill="var(--color2, #2196f3)" d="M13.876 20.267h-.005a1.6 1.6 0 10-.004 3.2h.005a1.6 1.6 0 10.004-3.2zm.373 1.978a.534.534 0 01-.752-.756.534.534 0 01.373-.155.533.533 0 01.373.911h.005z"/></symbol><symbol id="astronaut" viewBox="0 0 32 32"><path fill="var(--color2, #2196f3)" d="M31.974 4.524a.534.534 0 00-.43-.363l-1.91-.278-.855-1.731c-.179-.365-.777-.365-.956 0l-.855 1.731-1.91.278a.535.535 0 00-.296.91l1.383 1.348-.326 1.903c-.034.2.048.402.212.522a.53.53 0 00.562.04l1.709-.899 1.709.899a.536.536 0 00.775-.563l-.326-1.903 1.383-1.348a.536.536 0 00.135-.547zm-2.463 1.327a.534.534 0 00-.153.472l.191 1.114-1-.526a.533.533 0 00-.498 0l-1.001.526.191-1.114a.534.534 0 00-.153-.472l-.81-.789 1.119-.163a.532.532 0 00.402-.292l.5-1.013.5 1.013a.535.535 0 00.402.292l1.119.163-.809.789zM26.133 20.522h-1.067v1.067h1.067v-1.067zM26.133 22.656h-1.067v1.067h1.067v-1.067zM27.2 21.589h-1.067v1.067H27.2v-1.067zM25.067 21.589H24v1.067h1.067v-1.067zM22.4 26.389h-1.067v1.067H22.4v-1.067zM22.4 28.522h-1.067v1.067H22.4v-1.067zM23.467 27.456H22.4v1.067h1.067v-1.067zM21.333 27.456h-1.067v1.067h1.067v-1.067zM16 24.256h-1.067v1.067H16v-1.067zM16 26.389h-1.067v1.067H16v-1.067zM17.067 25.322H16v1.067h1.067v-1.067zM14.933 25.322h-1.067v1.067h1.067v-1.067zM5.866 6.122H4.799v1.067h1.067V6.122zM5.866 8.255H4.799v1.067h1.067V8.255z"/><path fill="var(--color2, #2196f3)" d="M6.933 7.189H5.866v1.067h1.067V7.189zM4.8 7.189H3.733v1.067H4.8V7.189z"/><path fill="var(--color1, #212121)" d="M24.715 14.159a1.775 1.775 0 00-1.188-.705 1.778 1.778 0 00-1.34.352l-1.252.96-1.898 1.417-1.358-.541c2.421-1.086 4.114-3.508 4.114-6.32 0-3.823-3.123-6.933-6.961-6.933s-6.961 3.11-6.961 6.933a6.86 6.86 0 001.12 3.758l-2.764-.024h-.005c-.009 0-.015.004-.023.005a.515.515 0 00-.155.031l-.038.013c-.006.003-.013.003-.019.006l-3.233 1.596-.001.001-1.893.911a.397.397 0 00-.063.035 1.779 1.779 0 00-.598 2.295c.22.429.595.745 1.056.889a1.776 1.776 0 001.378-.128l1.388-.738 2.264-1.169 1.357-.008L2.2 22.211l-.002.001-1.339 1.333c-.316.315-.49.732-.49 1.178s.174.863.49 1.179c.325.323.752.485 1.179.485s.854-.162 1.18-.485l1.314-1.309 1.741-1.3.901.897-1.762 1.754-.002.001-1.339 1.333c-.316.315-.49.732-.49 1.178s.174.863.49 1.179c.325.323.753.485 1.18.485s.855-.162 1.18-.485l3.482-3.467.001-.002 1.01-1-.004-.004c.006-.006.015-.009.022-.015l5.166-5.658 3.471.494a.52.52 0 00.262-.033c.018-.006.033-.015.05-.023.019-.01.039-.015.058-.027l3.213-2.133c.012-.008.018-.021.029-.029.013-.01.029-.014.041-.026l1.271-1.191c.662-.62.753-1.635.212-2.362zM2.13 17.77a.714.714 0 01-.558.052.717.717 0 01-.213-1.26l1.314-.632.449 1.313-.992.527zm3.498-1.828l-1.548.8-.439-1.283 2.027-1.001-.04 1.484zm15.099-6.62a5.79 5.79 0 01-.599 2.559l-4.181-1.899a1.863 1.863 0 00-.788-1.388l1.464-4.86c2.378.756 4.105 2.974 4.105 5.588zm-11.789 0c0-3.235 2.644-5.867 5.894-5.867.253 0 .5.021.745.052l-1.432 4.754c-.019-.001-.037-.006-.057-.006-1.033 0-1.873.837-1.873 1.867s.84 1.867 1.873 1.867c.694 0 1.294-.383 1.618-.945l3.862 1.755a5.894 5.894 0 01-4.737 2.39c-3.25 0-5.894-2.632-5.894-5.867zm5.956.8c0 .441-.362.8-.806.8s-.806-.359-.806-.8c0-.441.362-.8.806-.8s.806.359.806.8zM2.465 25.146a.608.608 0 01-.854.001.592.592 0 010-.844l.962-.959.851.848-.959.955zm3.214 3.734a.608.608 0 01-.855.001.592.592 0 010-.844l.963-.959.852.848-.96.955zm3.481-3.469l-.002.001-1.765 1.76-.852-.848 1.763-1.755.002-.001c.04-.04.065-.088.09-.135.007-.014.02-.026.026-.04.017-.041.019-.085.026-.129.003-.025.014-.047.014-.073 0-.036-.013-.07-.02-.106-.006-.032-.006-.065-.019-.095a.55.55 0 00-.091-.138c-.01-.012-.014-.027-.025-.038h-.001l-.001-.002-1.607-1.6c-.017-.017-.039-.024-.058-.038a.507.507 0 00-.087-.058.515.515 0 00-.093-.033.507.507 0 00-.103-.02.5.5 0 00-.095.005.53.53 0 00-.104.02.477.477 0 00-.094.045c-.02.011-.042.015-.061.029L4.23 23.486l-.901-.897 2.399-2.386 4.361 4.289-.928.919zm6.819-7.017c-.015-.002-.03.004-.045.003a.556.556 0 00-.3.075.492.492 0 00-.083.061c-.013.011-.028.017-.04.029l-4.698 5.146-4.328-4.257 2.833-2.818a.534.534 0 00-.379-.911v-.001l-2.219.013.028-1.607 3.104.027a6.947 6.947 0 004.981 2.101c.437 0 .864-.045 1.279-.123.04.032.079.065.13.085l2.41.96.152.758.178.885-3.003-.427zm4.041.178l-.313-1.558 1.446-1.08.947 1.257-2.08 1.381zm3.754-2.831l-.838.785-.931-1.236.831-.637a.735.735 0 01.543-.143.718.718 0 01.48.284.713.713 0 01-.085.947z"/><path fill="var(--color1, #212121)" d="M13.602 18.544l-2.143-2.133a.534.534 0 00-.753 0l-2.142 2.133a.537.537 0 000 .756l2.142 2.133a.536.536 0 00.753 0l2.143-2.133a.535.535 0 000-.756zm-2.519 1.759l-1.387-1.381 1.387-1.381 1.387 1.381-1.387 1.381zM17.164 5.071l-.258 1.036c.071.018 1.738.452 1.738 2.149h1.067c0-2.017-1.666-2.965-2.547-3.185zM19.711 9.322h-1.067v1.067h1.067V9.322z"/></symbol><symbol id="client1" viewBox="0 0 32 32"><path fill="var(--color3, #afb1b8)" d="M5 0l4.872 4.468h13.59v12.465l4.872 4.468V0H5.001z"/><path fill="var(--color3, #afb1b8)" d="M1 4.28v20.79h22.667v-8.264L10.016 4.285 1.001 4.28zm18.349 17.749H4.587V8.047H5.63v13.035h13.719v.947zM7.527 28.991l.545-1.123h.456l-.794 1.497v.872h-.413v-.872l-.796-1.497h.457l.545 1.123zm2.341.695H8.95l-.192.552H8.33l.895-2.37h.369l.897 2.37h-.43l-.194-.552zm-.803-.332h.687l-.343-.983-.343.983zm2.426.244c0-.11.03-.21.09-.301.06-.092.177-.201.353-.327a1.538 1.538 0 01-.194-.296.58.58 0 01-.054-.236c0-.186.056-.332.169-.439a.629.629 0 01.456-.163c.173 0 .314.051.423.153a.487.487 0 01.166.376.52.52 0 01-.075.273.894.894 0 01-.246.247l-.161.117.457.54a.947.947 0 00.099-.435h.343c0 .292-.068.531-.205.718l.348.412h-.459l-.133-.158c-.169.127-.371.19-.605.19s-.422-.062-.563-.186a.622.622 0 01-.21-.487zm.784.356a.603.603 0 00.374-.133l-.518-.61-.05.036c-.13.099-.195.212-.195.339 0 .11.035.199.106.267s.165.103.283.103zm-.218-1.526c0 .091.056.206.168.343l.181-.124.05-.041a.294.294 0 00.101-.23.207.207 0 00-.07-.158.25.25 0 00-.177-.067c-.077 0-.138.026-.184.078s-.068.118-.068.197zm4.305 1.038c-.024.253-.117.45-.28.592-.163.141-.379.212-.649.212a.943.943 0 01-.5-.133c-.143-.09-.254-.218-.332-.383s-.119-.356-.122-.575v-.221c0-.224.04-.42.119-.591s.193-.302.34-.394a.957.957 0 01.514-.138c.262 0 .472.071.632.213s.252.343.278.602h-.41c-.02-.17-.069-.293-.15-.368-.079-.076-.196-.114-.35-.114a.482.482 0 00-.413.197c-.095.13-.144.322-.146.575v.21c0 .256.046.451.137.586s.227.202.404.202c.162 0 .283-.036.365-.109s.133-.194.155-.363h.41zm2.261-.351c0 .232-.04.436-.12.612a.914.914 0 01-.345.404.95.95 0 01-.514.14.957.957 0 01-.514-.14.927.927 0 01-.348-.402 1.424 1.424 0 01-.124-.601v-.133c0-.231.041-.435.122-.612a.918.918 0 01.347-.405c.15-.094.321-.142.514-.142s.364.047.513.14c.15.092.265.226.347.4.081.174.123.376.124.607v.132zm-.412-.124c0-.263-.05-.464-.15-.604a.485.485 0 00-.422-.21.487.487 0 00-.418.21c-.1.139-.151.336-.153.591v.137c0 .26.05.462.151.604a.492.492 0 00.423.213.483.483 0 00.42-.208c.099-.139.148-.342.148-.609v-.124z"/></symbol><symbol id="client2" viewBox="0 0 32 32"><path fill="var(--color3, #afb1b8)" d="M14.14 1.806h.084c.156 0 .324.016.49.03.734.052 1.463.162 2.179.329V.403a12.97 12.97 0 00-2.25-.358 18.11 18.11 0 00-.909-.044h-.263a18.35 18.35 0 00-4.515.582 18.3 18.3 0 00-4.79 1.948v17.475a19.484 19.484 0 014.566-1.779 19.948 19.948 0 013.833-.588h.051c.216-.011.433-.017.655-.019v-1.79a21.155 21.155 0 00-4.982.662 23.81 23.81 0 00-1.731.513l-.623.211V3.591l.266-.128a17.409 17.409 0 016.471-1.651.523.523 0 01.056 0c.248-.013.497-.019.741-.019h.28c.129.003.258.006.388.014z"/><path fill="var(--color3, #afb1b8)" d="M18.53 3.651a15.823 15.823 0 01-2.606-.211c-.277-.047-.55-.103-.814-.164v17.275a13.82 13.82 0 003.425.404 18.396 18.396 0 004.515-.581 18.362 18.362 0 004.792-1.948V1.263a19.58 19.58 0 01-4.564 1.781 19.388 19.388 0 01-4.747.609zm6.907.299l.623-.21v13.63l-.266.128a17.055 17.055 0 01-3.184 1.144c-1.331.344-2.7.522-4.074.527-.411 0-.819-.017-1.214-.052l-.427-.038V5.062l.497.033c.361.023.735.034 1.141.034a21.092 21.092 0 005.173-.663 26.802 26.802 0 001.731-.518zM5.377 25.977a.912.912 0 00-.693-.28 1.034 1.034 0 00-.4.075.91.91 0 00-.512.518 1.023 1.023 0 00-.072.387v2.335c-.006.165.026.328.092.479.055.12.135.226.234.313a.815.815 0 00.321.166c.114.032.231.048.349.049a.972.972 0 00.892-.61.951.951 0 00.075-.372v-.261h-.61v.208a.528.528 0 01-.036.208.359.359 0 01-.089.131.365.365 0 01-.128.067.425.425 0 01-.128.022.314.314 0 01-.286-.125.548.548 0 01-.081-.313v-2.177a.738.738 0 01.075-.349.312.312 0 01.299-.14.33.33 0 01.272.131c.068.09.104.2.101.313v.202h.604v-.238a1.093 1.093 0 00-.279-.737zM9.002 25.95a1.091 1.091 0 00-.694-.257 1.075 1.075 0 00-.364.066.965.965 0 00-.559.518 1.099 1.099 0 00-.089.452v2.239a1.08 1.08 0 00.089.459c.055.12.136.227.237.313a.94.94 0 00.322.197 1.028 1.028 0 00.728 0c.121-.044.233-.111.33-.197a.948.948 0 00.23-.313c.063-.144.093-.301.089-.459v-2.239a1.08 1.08 0 00-.089-.452 1.015 1.015 0 00-.23-.327zm-.284 3.019a.405.405 0 01-.121.324.445.445 0 01-.574 0 .397.397 0 01-.121-.324V26.73a.405.405 0 01.121-.324.445.445 0 01.574 0 .397.397 0 01.121.324v2.239zM13.764 29.969V25.73h-.587l-.771 2.244h-.011l-.777-2.244h-.581v4.239h.606V27.39h.011l.593 1.823h.302l.598-1.823h.011v2.579h.606zM17.205 26.027a.844.844 0 00-.342-.232 1.363 1.363 0 00-.439-.066h-.9v4.239h.604v-1.656h.311c.189.009.376-.031.545-.116a.882.882 0 00.332-.324 1.02 1.02 0 00.139-.369c.024-.16.035-.321.033-.482a2.421 2.421 0 00-.059-.606.898.898 0 00-.223-.39zm-.311 1.293a.547.547 0 01-.056.221.346.346 0 01-.156.149.619.619 0 01-.285.053h-.276v-1.441h.311a.578.578 0 01.272.053.352.352 0 01.142.156.624.624 0 01.053.236v.282c0 .099.006.2 0 .291h-.006zM20.066 25.73h-.495l-.934 4.239h.604l.177-.911h.823l.177.911h.604l-.957-4.239zm-.557 2.751l.297-1.537h.011l.296 1.537h-.604zM23.969 28.283h-.011l-.912-2.554h-.581v4.239h.604v-2.549h.012l.923 2.549h.568v-4.239h-.604v2.554zM27.66 25.73l-.486 1.685h-.012l-.486-1.685h-.64l.83 2.447v1.792h.604v-1.792l.83-2.447h-.64zM3.692 31.166h.291v.817h.198v-.817h.29v-.167h-.778v.167zM6.14 30.999l-.381.984h.21l.081-.224h.392l.084.224h.215l-.391-.984h-.21zm-.032.594l.134-.365.134.365h-.268zM8.559 31.62h.227v.127a.38.38 0 01-.233.083.244.244 0 01-.209-.093.411.411 0 01-.073-.257c0-.219.095-.329.283-.329a.206.206 0 01.222.157l.195-.038c-.042-.192-.181-.289-.417-.289a.495.495 0 00-.344.127.494.494 0 00-.141.379.532.532 0 00.126.369.477.477 0 00.374.144.59.59 0 00.417-.157v-.388h-.427v.166zM11.029 30.999h-.199v.984h.69v-.167h-.49v-.817zM13.118 30.999h-.199v.984h.199v-.984zM15.161 31.656l-.403-.657h-.193v.984h.185v-.643l.395.643h.198v-.984h-.182v.657zM17.007 31.549h.49v-.167h-.49v-.216h.528v-.167h-.727v.984h.747v-.167h-.548v-.266zM21.484 31.387h-.388v-.388h-.198v.984h.198v-.43h.388v.43h.198v-.984h-.198v.388zM23.342 31.549h.492v-.167h-.492v-.216h.529v-.167h-.727v.984h.746v-.167h-.548v-.266zM25.86 31.549c.171-.027.258-.117.258-.274a.236.236 0 00-.096-.219.553.553 0 00-.288-.058h-.417v.984h.198v-.412h.039a.261.261 0 01.123.022.21.21 0 01.07.072l.215.313h.237l-.12-.192a.685.685 0 00-.218-.236zm-.199-.136h-.146v-.247h.156a.526.526 0 01.201.023c.014.013.026.029.033.046a.133.133 0 01-.005.111.128.128 0 01-.037.043.547.547 0 01-.201.023zM27.76 31.549h.49v-.167h-.49v-.216h.529v-.167h-.729v.984h.747v-.167h-.548v-.266z"/></symbol><symbol id="client3" viewBox="0 0 32 32"><path fill="var(--color3, #afb1b8)" d="M5.216 30.852a.093.093 0 01.061.025l.157.159a1.28 1.28 0 01-.441.302 1.622 1.622 0 01-.625.109 1.586 1.586 0 01-.588-.101 1.276 1.276 0 01-.443-.286 1.28 1.28 0 01-.286-.441 1.55 1.55 0 01-.1-.566 1.442 1.442 0 01.108-.568 1.311 1.311 0 01.774-.729c.193-.069.399-.103.606-.101a1.55 1.55 0 01.562.092c.155.062.298.148.421.255l-.131.17a.14.14 0 01-.033.031.09.09 0 01-.053.013.127.127 0 01-.057-.018l-.071-.045-.098-.058a1.172 1.172 0 00-.131-.056 1.3 1.3 0 00-.411-.063 1.19 1.19 0 00-.435.076.993.993 0 00-.341.213.978.978 0 00-.221.34 1.213 1.213 0 00-.08.449c-.002.155.025.309.08.456.048.125.122.24.218.338.09.092.201.164.325.21.128.049.265.074.404.072.08.001.16-.004.239-.014a.923.923 0 00.518-.233.118.118 0 01.074-.029zM9.743 30.052c.002.192-.033.383-.106.563-.064.163-.165.312-.295.437s-.289.222-.463.287a1.802 1.802 0 01-1.191 0 1.36 1.36 0 01-.461-.288 1.28 1.28 0 01-.298-.441 1.554 1.554 0 010-1.127c.067-.164.168-.315.298-.443.131-.12.288-.215.461-.277a1.765 1.765 0 011.191 0 1.293 1.293 0 01.758.724c.073.181.108.373.106.566zm-.412 0a1.248 1.248 0 00-.075-.452.928.928 0 00-.21-.338.915.915 0 00-.331-.213 1.3 1.3 0 00-.866 0 .92.92 0 00-.543.551c-.1.294-.1.61 0 .905a.92.92 0 00.212.338.926.926 0 00.331.212c.279.096.587.096.866 0a.913.913 0 00.331-.212.973.973 0 00.21-.338c.053-.146.078-.299.075-.452zM12.831 30.526l.041.101c.016-.036.029-.069.045-.101a.925.925 0 01.051-.099l1.001-1.68c.02-.029.037-.047.057-.052a.228.228 0 01.082-.009h.296v2.733h-.351v-2.01-.085a.737.737 0 010-.094l-1.007 1.704c-.013.026-.033.047-.059.062s-.056.023-.086.023h-.057a.16.16 0 01-.145-.085l-1.037-1.715v2.195h-.339v-2.728h.296a.25.25 0 01.082.009c.024.011.044.03.055.052l1.023 1.682c.02.031.037.064.051.098zM16.6 30.39v1.024h-.392v-2.729h.874c.165-.003.33.017.488.06a.945.945 0 01.345.17.705.705 0 01.196.268c.046.111.069.23.067.349a.813.813 0 01-.073.349.738.738 0 01-.212.273.984.984 0 01-.347.181 1.567 1.567 0 01-.472.063l-.474-.007zm0-.293h.474c.103.001.206-.013.304-.042a.641.641 0 00.22-.118.481.481 0 00.133-.181.554.554 0 00.047-.23c.005-.076-.009-.152-.039-.222s-.077-.134-.137-.186a.803.803 0 00-.527-.146h-.474v1.125zM21.867 31.418h-.31a.143.143 0 01-.086-.025.171.171 0 01-.051-.063l-.267-.66h-1.338l-.276.66a.143.143 0 01-.137.089h-.31l1.176-2.733h.408l1.192 2.733zm-1.94-1.015h1.105l-.466-1.113a1.812 1.812 0 01-.088-.257l-.045.143a1.464 1.464 0 01-.043.116l-.462 1.111zM23.561 28.697a.176.176 0 01.059.049l1.715 2.06v-.096-2.026h.351v2.733h-.196a.182.182 0 01-.08-.016.208.208 0 01-.063-.051l-1.713-2.059a.737.737 0 010 .094v2.031h-.351v-2.733h.208a.168.168 0 01.07.013zM28.574 30.33v1.085h-.392V30.33l-1.084-1.646h.351c.03-.002.06.007.084.024a.256.256 0 01.053.061l.678 1.062a1.113 1.113 0 01.12.243l.051-.118a.885.885 0 01.067-.125l.668-1.069a.28.28 0 01.051-.058.12.12 0 01.084-.027h.355l-1.086 1.654zM12.637 24.097c.171.02.343.036.517.051 2.644-1.092 4.881-2.879 6.431-5.138s2.344-4.889 2.284-7.563l-2.914-2.69c.593 2.846.315 5.788-.8 8.498s-3.026 5.078-5.518 6.842z"/><path fill="var(--color3, #afb1b8)" d="M11.597 23.972l.078.014c2.662-1.758 4.692-4.212 5.827-7.046s1.322-5.917.538-8.85l-4.151-3.831c1.679 3.149 2.355 6.674 1.949 10.164s-1.877 6.802-4.242 9.55zM25.673 14.605c-.705 2.937-2.418 5.587-4.884 7.554a15.425 15.425 0 01-2.32 1.538c2.008-.545 3.853-1.508 5.394-2.815s2.736-2.924 3.493-4.724l-1.683-1.552z"/><path fill="var(--color3, #afb1b8)" d="M25.013 14.173l-2.397-2.212c-.046 2.522-.823 4.987-2.25 7.139s-3.452 3.911-5.865 5.095h.012c.538 0 1.075-.03 1.609-.089 2.255-.85 4.247-2.201 5.799-3.934s2.614-3.794 3.093-5.998zM11.943 2.643L9.084 0C6.528.912 4.33 2.515 2.777 4.599S.389 9.151.381 11.681c.01 2.795 1.029 5.507 2.896 7.707s4.476 3.762 7.414 4.44c2.622-2.949 4.158-6.593 4.383-10.403s-.871-7.586-3.131-10.781zM31.619 13.766c-.01-3.316-1.442-6.494-3.982-8.838s-5.983-3.666-9.575-3.676a14.393 14.393 0 00-4.854.834l17.506 16.159c.599-1.428.906-2.947.905-4.479z"/></symbol><symbol id="client4" viewBox="0 0 32 32"><path fill="var(--color3, #afb1b8)" d="M4.982 12.851h-.001c-.909 0-1.646.676-1.646 1.509v.001c0 .834.737 1.509 1.646 1.509h.001c.909 0 1.646-.676 1.646-1.509v-.001c0-.834-.737-1.509-1.646-1.509zM17.128 12.369c-.003-1.158-.505-2.267-1.398-3.086s-2.102-1.28-3.364-1.282c-1.263.002-2.473.463-3.366 1.282s-1.396 1.929-1.398 3.087v6.384s9.525-.973 9.526-6.383v-.001zM0 20.848c.002.806.352 1.578.973 2.147s1.463.891 2.341.893c.878-.002 1.72-.323 2.34-.893s.971-1.341.973-2.147v-4.442s-6.628.678-6.628 4.441zm3.314.796c-.172 0-.339-.047-.482-.134s-.254-.212-.32-.357-.083-.305-.049-.46.116-.296.237-.408c.121-.111.276-.187.444-.218s.343-.015.501.045c.159.06.294.162.389.293a.753.753 0 01.081.747c-.043.096-.107.185-.188.259s-.176.133-.282.173a.944.944 0 01-.333.061v-.003zM10.045 21.202h-.659v.68h-.343v-1.665h1.084v.278h-.741v.43h.659v.277zm1.649-.114c0 .164-.029.308-.087.431a.657.657 0 01-.619.387.665.665 0 01-.621-.383.973.973 0 01-.09-.425v-.082c0-.164.029-.308.088-.432a.664.664 0 01.62-.388c.138 0 .262.034.369.101.108.066.192.162.25.287s.089.268.089.431v.074zm-.348-.076c0-.175-.031-.307-.094-.398s-.152-.136-.268-.136c-.115 0-.204.045-.266.135s-.094.22-.095.393v.081c0 .17.031.302.094.396s.152.141.27.141c.115 0 .204-.045.265-.135s.093-.223.094-.396v-.081zm1.46.434c0-.065-.023-.114-.069-.149s-.128-.072-.247-.11a1.805 1.805 0 01-.282-.114c-.189-.102-.284-.24-.284-.413 0-.09.025-.17.075-.24s.124-.126.218-.166c.095-.04.202-.059.32-.059s.225.022.318.065a.484.484 0 01.294.45h-.343c0-.076-.024-.135-.072-.177s-.115-.064-.202-.064c-.084 0-.149.018-.196.054s-.07.082-.07.139c0 .054.027.099.081.136s.135.071.241.103c.195.059.337.131.426.218s.134.195.134.325c0 .144-.054.257-.163.34s-.256.122-.44.122c-.128 0-.245-.023-.35-.07s-.186-.112-.241-.193a.496.496 0 01-.082-.284h.344c0 .184.11.276.329.276.082 0 .145-.016.191-.049s.069-.08.069-.139zm1.831-.95h-.51v1.387h-.343v-1.387h-.503v-.278h1.356v.278zm1.198.665h-.659v.446h.773v.276h-1.116v-1.665h1.114v.278h-.771v.397h.659v.269zm.931.112h-.273v.609h-.343v-1.665h.619c.197 0 .348.044.455.131s.16.212.16.372c0 .114-.025.208-.074.285s-.123.136-.223.181l.36.68v.016h-.368l-.312-.609zm-.273-.278h.277c.086 0 .153-.022.2-.065s.071-.105.071-.182c0-.079-.022-.14-.067-.185s-.112-.067-.205-.067h-.276v.5zm2.079.301v.587h-.343v-1.665h.649c.125 0 .235.023.329.069s.168.111.22.195a.54.54 0 01.077.287c0 .163-.056.292-.168.386s-.266.141-.463.141h-.301zm0-.278h.306c.091 0 .16-.021.207-.064s.072-.104.072-.183c0-.082-.024-.148-.072-.198s-.114-.076-.199-.078h-.314v.523zm2.17.143h-.659v.446h.773v.276H19.74v-1.665h1.114v.278h-.771v.397h.659v.269zm1.591-.665h-.51v1.387h-.343v-1.387h-.503v-.278h1.356v.278zm1.198.665h-.659v.446h.773v.276h-1.116v-1.665h1.114v.278h-.771v.397h.659v.269zm.932.112h-.273v.609h-.343v-1.665h.619c.197 0 .348.044.455.131s.16.212.16.372c0 .114-.025.208-.074.285s-.123.136-.223.181l.36.68v.016h-.368l-.312-.609zm-.273-.278h.277c.086 0 .153-.022.2-.065s.071-.105.071-.182c0-.079-.022-.14-.067-.185s-.112-.067-.205-.067h-.276v.5zm2.016.451c0-.065-.023-.114-.069-.149s-.128-.072-.247-.11a1.805 1.805 0 01-.282-.114c-.189-.102-.284-.24-.284-.413 0-.09.025-.17.075-.24s.124-.126.218-.166c.095-.04.202-.059.32-.059s.225.022.318.065a.484.484 0 01.294.45h-.343c0-.076-.024-.135-.072-.177s-.115-.064-.202-.064c-.084 0-.149.018-.195.054s-.07.082-.07.139c0 .054.027.099.081.136s.135.071.241.103c.195.059.337.131.426.218s.134.195.134.325c0 .144-.054.257-.163.34s-.256.122-.44.122c-.128 0-.245-.023-.35-.07s-.186-.112-.241-.193a.496.496 0 01-.082-.284h.344c0 .184.11.276.329.276.082 0 .145-.016.191-.049s.069-.08.069-.139z"/></symbol><symbol id="client5" viewBox="0 0 32 32"><path fill="var(--color3, #afb1b8)" d="M2.434 24.557a.852.852 0 01.188.548.862.862 0 01-.291.692 1.258 1.258 0 01-.845.253H0v-3.474h1.455c.287-.019.572.062.806.231a.793.793 0 01.282.65.8.8 0 01-.169.531.784.784 0 01-.443.271.842.842 0 01.502.297zm-1.743-.524h.622a.587.587 0 00.396-.115.417.417 0 00.133-.339.433.433 0 00-.132-.34.6.6 0 00-.407-.117H.691v.911zm1.079 1.332c.05-.044.089-.098.115-.159s.037-.128.032-.194a.44.44 0 00-.151-.357.642.642 0 00-.423-.126H.691v.955h.661a.652.652 0 00.417-.12zM5.409 26.051l-.81-1.358h-.304v1.358h-.696v-3.474h1.318c.332-.023.661.082.918.295a1.113 1.113 0 01.098 1.438 1.07 1.07 0 01-.629.353l.862 1.388h-.757zM4.295 24.22h.57c.396 0 .593-.175.593-.526a.517.517 0 00-.146-.39.618.618 0 00-.448-.141h-.576l.007 1.057zM9.215 25.352H7.827l-.245.699h-.73l1.274-3.435h.789l1.269 3.435h-.73l-.24-.699zm-.186-.526l-.507-1.466-.507 1.466h1.014zM13.98 26.051h-.691l-1.55-2.362v2.362h-.69v-3.474h.69l1.55 2.376v-2.376h.691v3.474zM17.925 25.219a1.501 1.501 0 01-.625.613 2.025 2.025 0 01-.972.219h-1.231v-3.474h1.231c.336-.009.67.065.972.214.265.134.483.345.625.606a2.032 2.032 0 010 1.822zm-.791-.083a1.278 1.278 0 000-1.658 1.196 1.196 0 00-.865-.295h-.48v2.249h.48c.316.02.627-.086.865-.295zM9.648 3.254s8.923 3.382 8.734 8.277v8.278s-8.916-3.384-8.73-8.278l-.003-8.277zM26.331 17.871A12.198 12.198 0 0132 15.773v-2.591a11.639 11.639 0 00-5.669 4.689z"/><path fill="var(--color3, #afb1b8)" d="M25.318 18.652A12.14 12.14 0 0132 12.639V5.172S19.293 9.99 19.561 16.96v11.786s.566-.216 1.457-.619c0-.377 0-.757.041-1.139a12.261 12.261 0 014.259-8.336z"/><path fill="var(--color3, #afb1b8)" d="M24.11 23.03c.067-.817.216-1.626.445-2.413a11.41 11.41 0 00-2.691 7.119 36.68 36.68 0 002.444-1.293 12.251 12.251 0 01-.198-3.413zM24.615 23.072a11.68 11.68 0 00.157 3.09c3.472-2.086 7.373-5.308 7.223-9.203v-.339a11.378 11.378 0 00-6.606 3.099 11.679 11.679 0 00-.774 3.353z"/></symbol><symbol id="client6" viewBox="0 0 32 32"><path fill="var(--color3, #afb1b8)" d="M16.086 15.349a1.113 1.113 0 01-.205-.717v-1.039c0-.319.068-.561.204-.726s.369-.248.701-.247c.311 0 .532.07.663.211.142.18.212.4.196.622v.244h-.557v-.247a1.307 1.307 0 00-.016-.242.238.238 0 00-.08-.144.31.31 0 00-.202-.056.329.329 0 00-.212.059.279.279 0 00-.092.159 1.306 1.306 0 00-.022.257v1.261a.682.682 0 00.071.354c.028.037.066.067.111.086s.095.026.144.02a.292.292 0 00.197-.057.256.256 0 00.083-.153c.013-.084.019-.168.017-.253v-.256h.557v.234a.991.991 0 01-.192.653c-.128.154-.346.231-.666.231s-.562-.082-.699-.254zM18.404 15.359c-.141-.162-.211-.397-.211-.709v-1.093c0-.309.07-.542.211-.701s.376-.237.705-.237c.327 0 .561.079.702.237s.212.392.212.701v1.093c0 .309-.071.545-.214.708s-.376.244-.699.244c-.324 0-.564-.082-.705-.243zm.964-.262a.649.649 0 00.067-.323v-1.338a.625.625 0 00-.066-.317c-.028-.038-.068-.068-.114-.087s-.097-.025-.147-.019c-.05-.006-.101 0-.147.019s-.086.049-.114.087a.606.606 0 00-.067.317v1.344a.628.628 0 00.067.323.353.353 0 00.26.108c.049 0 .098-.01.143-.028s.085-.046.117-.08v-.006zM20.692 12.651h.599l.451 2.016.461-2.016h.583l.059 2.911h-.431l-.046-2.023-.445 2.023h-.346l-.461-2.03-.043 2.03h-.436l.054-2.911zM23.517 12.651h.933c.538 0 .807.275.807.826 0 .528-.283.791-.849.791h-.318v1.294h-.576l.003-2.911zm.797 1.244a.418.418 0 00.316-.092.496.496 0 00.083-.329.938.938 0 00-.028-.264.228.228 0 00-.115-.139.562.562 0 00-.257-.046h-.224v.87h.224zM26.087 12.651h.619l.635 2.911h-.537l-.126-.671h-.552l-.129.671h-.545l.635-2.911zm.529 1.903l-.215-1.222-.215 1.222h.431zM27.854 12.651h.403l.772 1.66v-1.66h.478v2.911h-.384l-.777-1.733v1.733h-.494l.001-2.911zM30.628 14.452l-.642-1.797h.54l.392 1.154.368-1.154h.529l-.634 1.797v1.11h-.553v-1.11zM16.976 16.835v.152h-.47v1.183h-.197v-1.183h-.472v-.152h1.14zM18.45 18.17h-.152a.066.066 0 01-.043-.013.063.063 0 01-.025-.031l-.136-.317h-.652l-.136.317a.088.088 0 01-.021.036.07.07 0 01-.043.013h-.152l.576-1.335h.201l.583 1.33zm-.954-.496h.544l-.23-.543a1.1 1.1 0 01-.043-.126l-.022.071-.021.056-.228.542zM19.443 18.038a.571.571 0 00.2-.016.605.605 0 00.083-.024c.025-.009.051-.021.077-.033v-.3h-.23c-.006 0-.011 0-.017-.002s-.01-.005-.014-.008-.007-.007-.009-.011-.003-.009-.003-.013v-.103h.447v.512a.856.856 0 01-.387.135 1.35 1.35 0 01-.168.008.816.816 0 01-.29-.05.655.655 0 01-.379-.351.711.711 0 01-.053-.277.723.723 0 01.052-.279c.033-.079.084-.151.149-.211s.144-.107.23-.138a.922.922 0 01.309-.05c.054 0 .107.004.16.012a.704.704 0 01.352.157l-.055.082c-.004.008-.011.014-.019.018s-.017.007-.026.007a.066.066 0 01-.036-.011.485.485 0 01-.056-.032.54.54 0 00-.183-.066.89.89 0 00-.146-.012.643.643 0 00-.222.037.46.46 0 00-.276.272.666.666 0 000 .445.49.49 0 00.283.274.605.605 0 00.228.026zM21.28 18.017h.629v.152h-.822v-1.335h.197l-.005 1.183zM22.564 18.169h-.197v-1.335h.197v1.335zM23.297 16.841a.089.089 0 01.03.024l.842 1.006a.384.384 0 010-.048v-.994h.172v1.34h-.099a.09.09 0 01-.043-.007.11.11 0 01-.031-.025l-.841-1.005v1.037h-.165v-1.335h.103c.011 0 .022.002.032.006zM25.791 16.835v.147h-.698v.441h.566v.142h-.566v.456h.698v.147h-.901v-1.332h.901zM5.143 8.591l8.75 2.279v7.985l-8.75-2.278V8.591zm-.561-.681v9.055l9.871 2.571v-9.054L4.582 7.909z"/><path fill="var(--color3, #afb1b8)" d="M9.872 23.739L0 21.165v-9.054l9.872 2.572v9.055z"/><path fill="var(--color3, #afb1b8)" d="M4.745 8.488l8.636 2.25-3.672 3.369-8.637-2.251 3.674-3.368zm-.163-.578L0 12.112l9.872 2.572 4.581-4.202L4.582 7.91zM10.428 23.23l4.025-3.693-4.025-1.049v4.742z"/></symbol><symbol id="clock" viewBox="0 0 32 32"><path fill="var(--color1, #212121)" d="M31.297 15.301C31.295 6.849 24.442-.002 15.989 0S.686 6.855.688 15.308a15.304 15.304 0 0010.649 14.576.662.662 0 00.529-.065.637.637 0 00.283-.356l3.865-12.25a1.912 1.912 0 10-.84-3.635l-5.106-5.107a.637.637 0 00-.902.902l5.103 5.109a1.876 1.876 0 00.536 2.309l-3.683 11.673C3.844 25.783.118 17.71 2.799 10.432S13.553-.572 20.831 2.109s11.004 10.754 8.323 18.032a14.042 14.042 0 01-7.462 7.973l-.398-1.874a.638.638 0 00-1.048-.344l-3.837 3.426a.637.637 0 00.231 1.084l4.899 1.563a.638.638 0 00.819-.74l-.391-1.839a15.255 15.255 0 009.329-14.089zm-15.305-.637a.638.638 0 110 1.277.638.638 0 010-1.277zm2.101 14.864l2.184-1.948.603 2.84-2.787-.892z"/><path fill="var(--color2, #2196f3)" d="M15.354 3.185V4.46a.638.638 0 101.276 0V3.185a.638.638 0 00-1.276 0zM3.876 14.664a.638.638 0 000 1.276h1.275a.638.638 0 100-1.276H3.876zM28.108 15.939a.638.638 0 100-1.276h-1.275a.638.638 0 000 1.276h1.275z"/></symbol><symbol id="diagram" viewBox="0 0 32 32"><path fill="var(--color2, #2196f3)" d="M14.926 14.965h1.066v4.798h-1.066v-4.797zM19.19 17.097h1.066v2.665H19.19v-2.665zM10.661 18.696h1.066v1.066h-1.066v-1.066zM7.463 18.163h1.066v1.599H7.463v-1.599z"/><path fill="var(--color1, #212121)" d="M1.599 28.291h25.587a1.6 1.6 0 001.599-1.599V24.56a1.6 1.6 0 00-1.599-1.599h-.533V9.668L29.681 6.8a1.608 1.608 0 10-.746-.763L26.654 8.2V6.97a1.6 1.6 0 00-1.599-1.599H3.733A1.6 1.6 0 002.134 6.97v15.992h-.533a1.6 1.6 0 00-1.599 1.599v2.132a1.6 1.6 0 001.599 1.599zM30.384 4.837a.533.533 0 110 1.067.533.533 0 010-1.067zM3.198 6.969c0-.294.239-.533.533-.533h21.322c.294 0 .533.239.533.533v2.239l-1.066 1.013V8.035a.533.533 0 00-.533-.533H4.797a.533.533 0 00-.533.533v13.326c0 .294.239.533.533.533h19.19a.533.533 0 00.533-.533v-9.674l1.066-1.01v12.284H3.198V6.969zm4.798 6.93a1.598 1.598 0 101.107 2.749l1.853.93a.532.532 0 00.636-.123l3.939-4.431 3.872 2.901a.533.533 0 00.686-.039l3.365-3.188v8.131H5.33V8.569h18.124v2.66l-3.771 3.572-3.904-2.927a.533.533 0 00-.718.072l-3.993 4.493-1.493-.746c.011-.064.018-.129.02-.193a1.6 1.6 0 00-1.599-1.599zm.533 1.599a.533.533 0 11-1.067 0 .533.533 0 011.067 0zm3.198 8.528h5.331v.533a.533.533 0 01-.533.533h-4.264a.533.533 0 01-.533-.533v-.533zm-10.661.534c0-.294.239-.533.533-.533h9.062v.533a1.6 1.6 0 001.599 1.599h4.264a1.6 1.6 0 001.599-1.599v-.533h9.062c.294 0 .533.239.533.533v2.132a.533.533 0 01-.533.533H1.598a.533.533 0 01-.533-.533V24.56z"/></symbol><symbol id="facebook" viewBox="0 0 32 32"><path fill="var(--color4, #fff)" d="M21.329 5.313h2.921V.225C23.746.156 22.013 0 19.994 0c-4.212 0-7.097 2.649-7.097 7.519V12H8.249v5.688h4.648V32h5.699V17.689h4.46l.708-5.688h-5.169V8.082c.001-1.644.444-2.769 2.735-2.769z"/></symbol><symbol id="facebook-team" viewBox="0 0 32 32"><path d="M21.329 5.313h2.921V.225C23.746.156 22.013 0 19.994 0c-4.212 0-7.097 2.649-7.097 7.519V12H8.249v5.688h4.648V32h5.699V17.689h4.46l.708-5.688h-5.169V8.082c.001-1.644.444-2.769 2.735-2.769z"/></symbol><symbol id="instagram" viewBox="0 0 32 32"><path fill="var(--color4, #fff)" d="M31.969 9.408c-.075-1.7-.35-2.869-.744-3.882a7.806 7.806 0 00-1.851-2.838A7.867 7.867 0 0026.542.844C25.523.45 24.36.175 22.66.1 20.947.019 20.403 0 16.059 0s-4.888.019-6.595.094c-1.7.075-2.869.35-3.882.744a7.803 7.803 0 00-2.838 1.85A7.867 7.867 0 00.9 5.52C.506 6.539.231 7.702.156 9.402c-.081 1.713-.1 2.257-.1 6.601s.019 4.888.094 6.595c.075 1.7.35 2.869.744 3.882a7.895 7.895 0 001.85 2.838 7.867 7.867 0 002.832 1.844c1.019.394 2.182.669 3.882.744 1.706.075 2.25.094 6.595.094s4.888-.019 6.595-.094c1.7-.075 2.869-.35 3.882-.744a8.184 8.184 0 004.682-4.682c.394-1.019.669-2.182.744-3.882.075-1.707.094-2.251.094-6.595s-.006-4.888-.081-6.595zm-2.882 13.065c-.069 1.563-.331 2.407-.55 2.969a5.31 5.31 0 01-3.038 3.038c-.563.219-1.413.481-2.969.55-1.688.075-2.194.094-6.464.094s-4.782-.019-6.464-.094c-1.563-.069-2.407-.331-2.969-.55a4.926 4.926 0 01-1.838-1.194 4.974 4.974 0 01-1.194-1.838c-.219-.563-.481-1.413-.55-2.969-.075-1.688-.094-2.194-.094-6.464s.019-4.782.094-6.464c.069-1.563.331-2.407.55-2.969a4.868 4.868 0 011.2-1.838A4.974 4.974 0 016.639 3.55c.563-.219 1.413-.481 2.969-.55 1.688-.075 2.194-.094 6.464-.094 4.276 0 4.782.019 6.464.094 1.563.069 2.407.331 2.969.55a4.914 4.914 0 011.838 1.194 4.974 4.974 0 011.194 1.838c.219.563.481 1.413.55 2.969.075 1.688.094 2.194.094 6.464s-.019 4.77-.094 6.458z"/><path fill="var(--color4, #fff)" d="M16.059 7.783c-4.538 0-8.22 3.682-8.22 8.22s3.682 8.22 8.22 8.22c4.539 0 8.22-3.682 8.22-8.22s-3.682-8.22-8.22-8.22zm0 13.552a5.333 5.333 0 010-10.664 5.333 5.333 0 010 10.664zM26.524 7.458a1.919 1.919 0 11-3.838 0 1.919 1.919 0 013.838 0z"/></symbol><symbol id="instagram-team" viewBox="0 0 32 32"><path d="M31.969 9.408c-.075-1.7-.35-2.869-.744-3.882a7.806 7.806 0 00-1.851-2.838A7.867 7.867 0 0026.542.844C25.523.45 24.36.175 22.66.1 20.947.019 20.403 0 16.059 0s-4.888.019-6.595.094c-1.7.075-2.869.35-3.882.744a7.803 7.803 0 00-2.838 1.85A7.867 7.867 0 00.9 5.52C.506 6.539.231 7.702.156 9.402c-.081 1.713-.1 2.257-.1 6.601s.019 4.888.094 6.595c.075 1.7.35 2.869.744 3.882a7.895 7.895 0 001.85 2.838 7.867 7.867 0 002.832 1.844c1.019.394 2.182.669 3.882.744 1.706.075 2.25.094 6.595.094s4.888-.019 6.595-.094c1.7-.075 2.869-.35 3.882-.744a8.184 8.184 0 004.682-4.682c.394-1.019.669-2.182.744-3.882.075-1.707.094-2.251.094-6.595s-.006-4.888-.081-6.595zm-2.882 13.065c-.069 1.563-.331 2.407-.55 2.969a5.31 5.31 0 01-3.038 3.038c-.563.219-1.413.481-2.969.55-1.688.075-2.194.094-6.464.094s-4.782-.019-6.464-.094c-1.563-.069-2.407-.331-2.969-.55a4.926 4.926 0 01-1.838-1.194 4.974 4.974 0 01-1.194-1.838c-.219-.563-.481-1.413-.55-2.969-.075-1.688-.094-2.194-.094-6.464s.019-4.782.094-6.464c.069-1.563.331-2.407.55-2.969a4.868 4.868 0 011.2-1.838A4.974 4.974 0 016.639 3.55c.563-.219 1.413-.481 2.969-.55 1.688-.075 2.194-.094 6.464-.094 4.276 0 4.782.019 6.464.094 1.563.069 2.407.331 2.969.55a4.914 4.914 0 011.838 1.194 4.974 4.974 0 011.194 1.838c.219.563.481 1.413.55 2.969.075 1.688.094 2.194.094 6.464s-.019 4.77-.094 6.458z"/><path d="M16.059 7.783c-4.538 0-8.22 3.682-8.22 8.22s3.682 8.22 8.22 8.22c4.539 0 8.22-3.682 8.22-8.22s-3.682-8.22-8.22-8.22zm0 13.552a5.333 5.333 0 010-10.664 5.333 5.333 0 010 10.664zM26.524 7.458a1.919 1.919 0 11-3.838 0 1.919 1.919 0 013.838 0z"/></symbol><symbol id="linkedin" viewBox="0 0 32 32"><path fill="var(--color4, #fff)" d="M31.992 32v-.001H32V20.263c0-5.741-1.236-10.164-7.948-10.164-3.227 0-5.392 1.771-6.276 3.449h-.093v-2.913h-6.364v21.364h6.627V21.42c0-2.785.528-5.479 3.977-5.479 3.399 0 3.449 3.179 3.449 5.657v10.401h6.62zM.528 10.636h6.635V32H.528V10.636zM3.843 0C1.722 0 0 1.721 0 3.843s1.721 3.879 3.843 3.879c2.121 0 3.843-1.757 3.843-3.879A3.846 3.846 0 003.843 0z"/></symbol><symbol id="linkedin-team" viewBox="0 0 32 32"><path d="M31.992 32v-.001H32V20.263c0-5.741-1.236-10.164-7.948-10.164-3.227 0-5.392 1.771-6.276 3.449h-.093v-2.913h-6.364v21.364h6.627V21.42c0-2.785.528-5.479 3.977-5.479 3.399 0 3.449 3.179 3.449 5.657v10.401h6.62zM.528 10.636h6.635V32H.528V10.636zM3.843 0C1.722 0 0 1.721 0 3.843s1.721 3.879 3.843 3.879c2.121 0 3.843-1.757 3.843-3.879A3.846 3.846 0 003.843 0z"/></symbol><symbol id="mail" viewBox="0 0 32 32"><path d="M29 4H3C1.346 4 0 5.256 0 6.801v16.803c0 1.544 1.346 2.801 3 2.801h26c1.654 0 3-1.256 3-2.801V6.801C32 5.257 30.654 4 29 4zm0 1.867c.136 0 .265.026.383.072L16 16.767 2.617 5.939c.118-.046.247-.072.383-.072h26zm0 18.67H3c-.552 0-1-.418-1-.934V7.911l13.345 10.796c.188.152.422.228.655.228s.467-.076.655-.228L30 7.911v15.692c0 .515-.448.934-1 .934z"/></symbol><symbol id="tel" viewBox="0 0 32 32"><path d="M23.467 0H8.534c-1.765 0-3.2 1.34-3.2 2.987v25.889c0 1.647 1.435 2.987 3.2 2.987h14.933c1.765 0 3.2-1.34 3.2-2.987V2.987c0-1.647-1.435-2.987-3.2-2.987zM8.533 1.991h14.933c.589 0 1.067.446 1.067.996v20.91H7.466V2.987c0-.549.478-.996 1.067-.996zm14.934 27.881H8.534c-.589 0-1.067-.446-1.067-.996v-2.987h17.067v2.987c0 .55-.478.996-1.067.996z"/></symbol><symbol id="twitter" viewBox="0 0 32 32"><path fill="var(--color4, #fff)" d="M32 6.078c-1.19.522-2.458.868-3.78 1.036a6.523 6.523 0 002.886-3.626 13.11 13.11 0 01-4.16 1.588A6.574 6.574 0 0022.154 3c-3.632 0-6.556 2.948-6.556 6.562 0 .52.044 1.02.152 1.496-5.454-.266-10.28-2.88-13.522-6.862a6.605 6.605 0 00-.898 3.316 6.57 6.57 0 002.914 5.452 6.479 6.479 0 01-2.964-.808v.072c0 3.188 2.274 5.836 5.256 6.446a6.548 6.548 0 01-1.72.216 5.8 5.8 0 01-1.242-.112c.85 2.598 3.262 4.508 6.13 4.57a13.182 13.182 0 01-8.134 2.798c-.538 0-1.054-.024-1.57-.09A18.469 18.469 0 0010.064 29c12.072 0 18.672-10 18.672-18.668 0-.29-.01-.57-.024-.848A13.087 13.087 0 0032 6.078z"/></symbol><symbol id="twitte-team" viewBox="0 0 32 32"><path d="M32 6.078c-1.19.522-2.458.868-3.78 1.036a6.523 6.523 0 002.886-3.626 13.11 13.11 0 01-4.16 1.588A6.574 6.574 0 0022.154 3c-3.632 0-6.556 2.948-6.556 6.562 0 .52.044 1.02.152 1.496-5.454-.266-10.28-2.88-13.522-6.862a6.605 6.605 0 00-.898 3.316 6.57 6.57 0 002.914 5.452 6.479 6.479 0 01-2.964-.808v.072c0 3.188 2.274 5.836 5.256 6.446a6.548 6.548 0 01-1.72.216 5.8 5.8 0 01-1.242-.112c.85 2.598 3.262 4.508 6.13 4.57a13.182 13.182 0 01-8.134 2.798c-.538 0-1.054-.024-1.57-.09A18.469 18.469 0 0010.064 29c12.072 0 18.672-10 18.672-18.668 0-.29-.01-.57-.024-.848A13.087 13.087 0 0032 6.078z"/></symbol></defs></svg>